<?xml version="1.0" encoding="UTF-8" standalone="no"?>
<svg
   xmlns:dc="http://purl.org/dc/elements/1.1/"
   xmlns:cc="http://creativecommons.org/ns#"
   xmlns:rdf="http://www.w3.org/1999/02/22-rdf-syntax-ns#"
   xmlns:svg="http://www.w3.org/2000/svg"
   xmlns="http://www.w3.org/2000/svg"
   xmlns:sodipodi="http://sodipodi.sourceforge.net/DTD/sodipodi-0.dtd"
   xmlns:inkscape="http://www.inkscape.org/namespaces/inkscape"
   version="1.1"
   x="0px"
   y="0px"
   viewBox="0 0 100 125"
   enable-background="new 0 0 100 100"
   xml:space="preserve"
   id="svg3692"
   sodipodi:docname="logo-erwan.svg"
   inkscape:version="0.92.2 (5c3e80d, 2017-08-06)"><metadata
     id="metadata3698"><rdf:RDF><cc:Work
         rdf:about=""><dc:format>image/svg+xml</dc:format><dc:type
           rdf:resource="http://purl.org/dc/dcmitype/StillImage" /><dc:title /></cc:Work></rdf:RDF></metadata><defs
     id="defs3696" /><sodipodi:namedview
     pagecolor="#ffffff"
     bordercolor="#666666"
     borderopacity="1"
     objecttolerance="10"
     gridtolerance="10"
     guidetolerance="10"
     inkscape:pageopacity="0"
     inkscape:pageshadow="2"
     inkscape:window-width="1920"
     inkscape:window-height="1017"
     id="namedview3694"
     showgrid="false"
     inkscape:zoom="3.7900923"
     inkscape:cx="130.31272"
     inkscape:cy="70.042078"
     inkscape:window-x="-8"
     inkscape:window-y="-8"
     inkscape:window-maximized="1"
     inkscape:current-layer="svg3692" /><g
     id="g3686"
     transform="translate(0,32.980727)"
     style="fill:#f2f2f2"><path
       d="m 6.592,44.278 c 0.272,0 0.544,0.008 0.816,0.027 0.296,0.025 0.592,0.057 0.884,0.101 0.444,0.476 0.876,0.96 1.292,1.46 0.624,0.752 1.208,1.536 1.804,2.316 0.316,0.412 0.632,0.824 0.896,1.268 0.016,0.128 0.028,0.256 0.04,0.385 v 0.004 c 0.016,0.215 0.04,0.432 0.064,0.647 0.016,0.12 0.032,0.244 0.048,0.364 0.036,0.264 0.08,0.523 0.124,0.787 0.092,0.496 0.204,0.992 0.332,1.48 0.068,0.26 0.14,0.516 0.22,0.771 0.028,0.093 0.06,0.185 0.092,0.276 0.044,0.152 0.096,0.304 0.148,0.452 0.008,0.02 0.012,0.044 0.02,0.064 -0.656,0.188 -1.492,0.268 -1.848,-0.076 C 11.156,54.248 11.312,53.42 11.316,52.68 11.336,50.104 9.532,48.512 7.964,46.856 7.148,45.992 6.396,45.112 5.54,44.328 5.8,44.304 6.064,44.288 6.324,44.28 6.416,44.278 6.5,44.278 6.592,44.278 Z"
       id="path3680"
       inkscape:connector-curvature="0"
       style="fill:#f2f2f2" /><path
       d="m 93.672,44.282 c 0.264,0.008 0.523,0.023 0.787,0.048 -0.859,0.784 -1.611,1.664 -2.428,2.528 -1.563,1.656 -3.367,3.248 -3.352,5.824 0.008,0.74 0.164,1.567 -0.208,1.924 -0.356,0.344 -1.192,0.264 -1.849,0.076 0.009,-0.021 0.017,-0.045 0.025,-0.064 0.084,-0.24 0.164,-0.484 0.235,-0.729 0.08,-0.256 0.151,-0.512 0.224,-0.771 0.129,-0.488 0.236,-0.984 0.328,-1.48 0.049,-0.264 0.088,-0.523 0.124,-0.787 0.005,-0.024 0.009,-0.049 0.009,-0.072 0.02,-0.096 0.031,-0.196 0.039,-0.292 0.028,-0.216 0.049,-0.433 0.068,-0.647 v -0.004 c 0.012,-0.129 0.023,-0.257 0.036,-0.385 0.264,-0.443 0.584,-0.855 0.899,-1.268 0.596,-0.78 1.176,-1.564 1.801,-2.316 0.416,-0.5 0.848,-0.984 1.291,-1.46 0.297,-0.044 0.593,-0.076 0.889,-0.101 0.361,-0.024 0.723,-0.032 1.082,-0.024 z"
       id="path3682"
       inkscape:connector-curvature="0"
       style="fill:#f2f2f2" /><path
       d="m 94.691,39.798 c 0.036,1.412 0.068,2.824 0.104,4.232 -0.372,-0.044 -0.744,-0.068 -1.12,-0.076 -0.372,-0.012 -0.74,0 -1.107,0.024 -0.945,0.063 -1.861,0.243 -2.797,0.56 -0.523,0.176 -1.056,0.396 -1.439,0.756 -0.385,0.5 -0.492,0.784 -0.612,1.448 -0.116,0.668 -0.248,1.716 -0.376,3.063 -0.023,0.313 -0.061,0.621 -0.1,0.929 -0.104,0.752 -0.248,1.496 -0.44,2.231 -0.097,0.369 -0.204,0.736 -0.319,1.097 -0.113,0.344 -0.232,0.68 -0.361,1.016 -0.26,0.677 -0.559,1.341 -0.899,1.979 -0.252,0.469 -0.524,0.925 -0.819,1.365 -0.412,0.604 -0.869,1.18 -1.377,1.707 -0.252,0.265 -0.52,0.517 -0.8,0.756 -0.264,0.225 -0.536,0.433 -0.815,0.629 -0.269,0.188 -0.549,0.359 -0.832,0.523 -0.28,0.16 -0.568,0.313 -0.864,0.452 -0.292,0.136 -0.593,0.265 -0.892,0.384 -0.541,0.208 -1.088,0.389 -1.648,0.54 -0.62,0.168 -1.252,0.308 -1.885,0.421 -0.184,0.031 -0.371,0.063 -0.559,0.092 -0.229,0.035 -0.461,0.071 -0.693,0.1 -0.467,0.061 -0.932,0.104 -1.399,0.136 -0.937,0.06 -1.88,0.064 -2.815,-0.008 -0.508,-0.04 -1.017,-0.101 -1.524,-0.188 -0.46,-0.076 -0.92,-0.176 -1.372,-0.3 -0.456,-0.12 -0.904,-0.268 -1.34,-0.436 -0.252,-0.097 -0.496,-0.2 -0.74,-0.312 -2.012,-0.949 -3.828,-2.277 -5.456,-3.984 -0.292,-0.301 -0.575,-0.616 -0.84,-0.944 -1.136,-1.399 -2.004,-3.052 -2.655,-4.64 -0.625,-1.516 -1.049,-2.973 -1.625,-4.896 -0.145,-0.472 -0.291,-0.972 -0.084,-1.275 0.252,-0.364 1.02,-0.448 1.352,-0.765 0.408,-0.392 0.141,-1.147 -0.239,-1.708 -0.332,-0.492 -0.752,-0.836 -1.22,-1.08 -0.488,-0.191 -1.045,-0.315 -1.664,-0.367 -0.381,-0.024 -0.764,-0.045 -1.148,-0.057 -0.42,-0.012 -0.844,-0.016 -1.268,-0.012 -0.424,-0.004 -0.848,0 -1.272,0.012 -0.384,0.012 -0.764,0.032 -1.147,0.057 -0.616,0.052 -1.172,0.176 -1.664,0.367 -0.469,0.244 -0.889,0.588 -1.221,1.08 -0.379,0.561 -0.644,1.316 -0.236,1.708 0.328,0.316 1.097,0.4 1.349,0.765 0.212,0.304 0.06,0.804 -0.08,1.275 -0.575,1.924 -1.004,3.381 -1.628,4.896 -0.652,1.588 -1.52,3.24 -2.652,4.64 -0.268,0.328 -0.547,0.644 -0.84,0.944 -1.627,1.707 -3.447,3.035 -5.455,3.984 -0.244,0.111 -0.492,0.215 -0.74,0.312 -0.44,0.168 -0.889,0.315 -1.344,0.436 -0.453,0.124 -0.908,0.224 -1.373,0.3 -0.504,0.088 -1.012,0.148 -1.523,0.188 -0.936,0.072 -1.876,0.067 -2.813,0.008 -0.468,-0.032 -0.936,-0.075 -1.4,-0.136 -0.231,-0.028 -0.463,-0.064 -0.695,-0.1 -0.188,-0.028 -0.372,-0.061 -0.561,-0.092 -0.631,-0.113 -1.264,-0.253 -1.883,-0.421 -0.557,-0.151 -1.108,-0.332 -1.645,-0.54 -0.305,-0.119 -0.6,-0.248 -0.896,-0.384 -0.291,-0.14 -0.58,-0.292 -0.864,-0.452 -0.284,-0.164 -0.56,-0.336 -0.832,-0.523 -0.28,-0.196 -0.552,-0.404 -0.812,-0.629 -0.28,-0.239 -0.548,-0.491 -0.804,-0.756 -0.508,-0.527 -0.964,-1.104 -1.372,-1.707 -0.3,-0.44 -0.572,-0.896 -0.82,-1.365 -0.344,-0.639 -0.644,-1.303 -0.904,-1.979 -0.128,-0.336 -0.248,-0.672 -0.356,-1.016 -0.12,-0.36 -0.224,-0.728 -0.32,-1.097 -0.192,-0.735 -0.34,-1.479 -0.44,-2.231 -0.044,-0.308 -0.076,-0.616 -0.104,-0.929 -0.128,-1.348 -0.256,-2.396 -0.376,-3.063 -0.12,-0.664 -0.228,-0.948 -0.608,-1.448 -0.384,-0.359 -0.916,-0.58 -1.444,-0.756 -0.932,-0.316 -1.852,-0.496 -2.796,-0.56 -0.28,-0.021 -0.56,-0.028 -0.84,-0.028 -0.464,0 -0.928,0.023 -1.384,0.08 0.032,-1.408 0.068,-2.82 0.1,-4.232 2.096,-0.287 4.192,-0.588 6.26,-1.035 3.516,-0.76 6.944,-1.948 10.484,-2.532 2.743,-0.452 5.556,-0.54 8.356,-0.332 2.615,0.192 5.223,0.64 7.635,1.628 2.113,0.863 4.072,2.14 5.797,3.645 0.271,0.243 0.615,0.327 1.027,0.256 0.68,-0.112 1.369,-0.205 2.057,-0.276 1.02,-0.108 2.052,-0.164 3.08,-0.172 1.027,0.008 2.056,0.063 3.08,0.172 0.688,0.071 1.371,0.164 2.056,0.276 0.412,0.071 0.752,-0.013 1.028,-0.256 1.72,-1.505 3.68,-2.781 5.791,-3.645 2.412,-0.988 5.021,-1.436 7.637,-1.628 2.805,-0.208 5.611,-0.12 8.359,0.332 3.537,0.584 6.969,1.772 10.484,2.532 2.06,0.447 4.16,0.748 6.251,1.035 z m -9.5,13.885 c 0.86,-2.641 1.092,-5.353 0.656,-8.137 -0.26,-1.668 -0.764,-3.367 -1.852,-4.531 -0.996,-1.068 -2.48,-1.692 -3.961,-2.108 -2.275,-0.644 -4.535,-0.8 -6.848,-0.872 -3.748,-0.111 -7.636,0 -11.048,1.788 -2.108,1.104 -4.036,2.849 -4.853,5.156 -0.688,1.944 -0.588,4.288 -0.155,6.28 0.524,2.428 1.548,4.336 2.976,6.123 1.301,1.633 2.94,3.168 4.844,4.129 2.912,1.476 6.453,1.607 9.832,1.047 2.324,-0.387 4.572,-1.104 6.324,-2.491 1.954,-1.548 3.29,-3.937 4.085,-6.384 z M 42.867,51.259 c 0.433,-1.992 0.529,-4.336 -0.16,-6.28 -0.815,-2.308 -2.743,-4.052 -4.852,-5.156 -3.412,-1.788 -7.296,-1.899 -11.048,-1.788 -2.312,0.072 -4.571,0.229 -6.849,0.872 -1.479,0.416 -2.963,1.04 -3.959,2.108 -1.084,1.164 -1.588,2.863 -1.852,4.531 -0.436,2.784 -0.2,5.496 0.656,8.137 0.796,2.447 2.132,4.836 4.088,6.384 1.752,1.388 4,2.104 6.32,2.491 3.384,0.561 6.92,0.429 9.836,-1.047 1.903,-0.961 3.54,-2.496 4.84,-4.129 1.429,-1.787 2.453,-3.695 2.98,-6.123 z"
       id="path3684"
       inkscape:connector-curvature="0"
       style="fill:#000000;fill-opacity:1" /></g><g
     transform="matrix(0.83975655,0,0,0.82094805,8.550212,25.051838)"
     id="g3733"
     style="fill:#000000;fill-opacity:1"><path
       inkscape:connector-curvature="0"
       d="m 62.729,47.337 0.075,3.456 c -0.036,0.15 -0.073,0.299 -0.104,0.449 l -0.084,0.271 C 62.586,51.47 62.553,51.431 62.532,51.379 62.437,51.175 62.324,50.987 62.245,50.774 62.169,50.56 62.073,50.358 62.002,50.14 61.932,49.922 61.858,49.707 61.793,49.488 61.67,49.046 61.549,48.603 61.441,48.153 L 61.138,46.794 60.393,46.9 c 0.033,0.427 0.053,0.854 0.063,1.281 10e-4,0.426 10e-4,0.851 -0.023,1.274 -0.012,0.211 -0.04,0.418 -0.059,0.628 -0.022,0.209 -0.068,0.41 -0.099,0.617 -0.034,0.206 -0.107,0.395 -0.157,0.595 -0.009,0.04 -0.025,0.075 -0.041,0.11 l -0.118,-0.237 -0.311,-0.739 c -0.197,-0.5 -0.378,-1.01 -0.582,-1.512 0.083,0.537 0.195,1.065 0.312,1.597 0.069,0.264 0.129,0.531 0.205,0.795 l 0.284,0.785 0.17,0.469 0.258,-0.447 0.175,-0.305 c 0.053,-0.104 0.127,-0.204 0.161,-0.313 0.076,-0.215 0.175,-0.43 0.231,-0.651 0.053,-0.22 0.122,-0.441 0.155,-0.664 0.028,-0.191 0.059,-0.383 0.083,-0.576 0.01,0.031 0.018,0.063 0.028,0.094 0.079,0.226 0.169,0.45 0.253,0.674 0.087,0.224 0.196,0.443 0.299,0.661 0.102,0.219 0.247,0.426 0.369,0.637 0.056,0.108 0.149,0.201 0.224,0.301 l 0.238,0.291 0.333,0.406 c 13.312,-5.48 28.763,2.412 30.807,3.216 l 0.842,-2.372 C 94.494,53.516 74.62,37.427 62.729,47.337 Z"
       id="path3729"
       style="fill:#000000;fill-opacity:1" /><path
       inkscape:connector-curvature="0"
       d="m 40.041,51.17 -0.118,0.237 c -0.016,-0.035 -0.032,-0.07 -0.041,-0.11 -0.05,-0.201 -0.123,-0.39 -0.157,-0.595 -0.031,-0.207 -0.077,-0.408 -0.099,-0.617 -0.019,-0.21 -0.047,-0.417 -0.059,-0.628 -0.024,-0.423 -0.024,-0.847 -0.023,-1.274 0.01,-0.427 0.03,-0.854 0.063,-1.281 l -0.745,-0.106 -0.303,1.359 c -0.108,0.45 -0.229,0.893 -0.352,1.335 -0.065,0.22 -0.139,0.434 -0.209,0.652 -0.071,0.217 -0.167,0.419 -0.243,0.634 -0.079,0.213 -0.192,0.401 -0.287,0.605 -0.021,0.051 -0.054,0.091 -0.084,0.134 L 37.3,51.243 c -0.031,-0.15 -0.068,-0.299 -0.104,-0.449 l 0.075,-3.456 C 25.38,37.428 5.506,53.517 5.506,53.517 l 0.842,2.372 c 2.044,-0.803 17.495,-8.695 30.807,-3.216 l 0.333,-0.406 0.238,-0.291 c 0.075,-0.1 0.168,-0.193 0.224,-0.301 0.121,-0.211 0.266,-0.418 0.369,-0.637 0.103,-0.218 0.212,-0.437 0.299,-0.661 0.084,-0.224 0.174,-0.448 0.253,-0.674 0.01,-0.031 0.018,-0.063 0.028,-0.094 0.024,0.192 0.055,0.384 0.083,0.576 0.033,0.223 0.102,0.444 0.155,0.664 0.055,0.22 0.155,0.435 0.231,0.651 0.033,0.109 0.107,0.209 0.161,0.313 l 0.175,0.305 0.258,0.447 0.17,-0.469 0.284,-0.785 c 0.076,-0.263 0.136,-0.531 0.205,-0.795 0.116,-0.532 0.229,-1.06 0.312,-1.597 -0.204,0.503 -0.385,1.013 -0.582,1.512 z"
       id="path3731"
       style="fill:#000000;fill-opacity:1" /></g><path
     inkscape:connector-curvature="0"
     d="m 94.646098,36.47269 c 0,0 -1.214,0.083 -4.063,-0.509 4.941,-5.952 2.504,-10.681 2.504,-10.681 0,0 -2.621,4.886 -10.574,5.486 5.773,-4.93 4.116,-8.583 4.116,-8.583 -3.796,5.697 -12.539,-5.062 -31.645,-5.062 -1.986,0 -3.831,0.107 -5.558,0.291 0.424,-2.835 0.498,-4.721 0.498,-4.721 0,0 -3.723,3.357 -15.93,7.94 0.25,-1.09 0.391,-1.809 0.391,-1.809 0,0 -3.492,2.099 -6.932,4.2 -5.594,2.287 -8.801,5.191 -10.426,8.144 -0.058,0.087 -0.118,0.161 -0.176,0.251 -5.885,9.121 -4.83,15.876 -4.83,15.876 0,0 0.185,-1.583 2.083,-3.694 -0.888,4.017 -1.397,8.59 -1.567,13.771 -0.057,1.79 -0.052,3.357 0.007,4.74 0.341,-0.105 0.688,-0.195 1.048,-0.255 0.945,-6.043 4.226,-10.252 6.111,-15.482 2.271,3.449 -0.697,5.231 -0.697,5.231 4.749,-1.188 8.546,-4.529 7.124,-6.531 8.514,7.363 22.052,4.278 22.052,4.278 1.02,-0.093 -4.242,-0.716 -7.06,-6.951 5.954,4.615 16.048,9.204 30.265,4.816 1.203,0.756 2.644,1.465 4.384,2.095 3.053,1.109 5.47,2.134 7.396,3.039 1.26,2.875 2.191,6.035 2.731,9.483 0.359,0.053 0.707,0.138 1.049,0.237 0.068,-1.337 0.066,-2.891 -0.015,-4.701 -0.049,-1.087 -0.114,-2.138 -0.186,-3.173 2.129,1.224 2.906,1.957 2.906,1.957 0,0 -0.166,-7.501 -3.258,-13.7 4.649,-1.839 8.252,-5.983 8.252,-5.983 z"
     id="path3774"
     style="fill:#000000;fill-opacity:1" /></svg>